{"title":"Hum Hain Rahi Pyar Ke (1993) 1CD DVDRip XviD Team Bindass","uid":5535414,"size":726615637,"categoryP":"video","categoryS":"movies","magnet":"?xt=urn:btih:14f0a78cc485eaacc9759f815f90f9b2fc0822ec&amp;dn=Hum+Hain+Rahi+Pyar+Ke+%281993%29+1CD+DVDRip+XviD+Team+Bindass&amp;tr=udp%3A%2F%2Ftracker.openbittorrent.com%3A80&amp;tr=udp%3A%2F%2Fopen.demonii.com%3A1337&amp;tr=udp%3A%2F%2Ftracker.coppersurfer.tk%3A6969&amp;tr=udp%3A%2F%2Fexodus.desync.com%3A6969","seeders":5,"leechers":4,"uploader":"DibyaTPB","files":3,"time":1273056195,"description":"Hum Hain Rahi Pyar Ke (1993) 1CD DVDRip\ncredits to team bindass\n\nFILE INFO\n\nSoucre : DVD 9 @ Team Bindass\nFormat : AVI\nFormat/Info : Audio Video Interleave\nFormat profile : OpenDML\nFile size : 686 MiB\nDuration : 2h 35mn\nOverall bit rate : 617 Kbps\nWriting application : AVI-Mux GUI 1.17.8.3, Feb 16 201019:42:50\n\nVideo\nID : 0\nFormat : MPEG-4 Visual\nFormat profile : AdvancedSimple@L5\nFormat settings, BVOP : Yes\nFormat settings, QPel : Yes\nFormat settings, GMC : No warppoints\nFormat settings, Matrix : Default (H.263)\nCodec ID : XVID\nCodec ID/Hint : XviD\nDuration : 2h 35mn\nBit rate : 519 Kbps\nWidth : 608 pixels\nHeight : 288 pixels\nDisplay aspect ratio : 2.2:1\nFrame rate : 23.976 fps\nResolution : 24 bits\nColorimetry : 4:2:0\nScan type : Progressive\nBits/(Pixel*Frame) : 0.124\nStream size : 577 MiB (84%)\nWriting library : XviD 1.2.1 (UTC 2008-12-04)\n\nAudio\nID : 1\nFormat : MPEG Audio\nFormat version : Version 1\nFormat profile : Layer 3\nFormat_Settings_Mode : Joint stereo / MS Stereo\nCodec ID : 55\nCodec ID/Hint : MP3\nDuration : 2h 35mn\nBit rate mode : Variable\nBit rate : 91.0 Kbps\nChannel(s) : 2 channels\nSampling rate : 32.0 KHz\nResolution : 16 bits\nStream size : 101 MiB (15%)\nAlignment : Aligned on interleaves\nInterleave, duration : 36 ms (0.86 video frame)\nInterleave, preload duration : 208 ms","torrent":{"xt":"urn:btih:14f0a78cc485eaacc9759f815f90f9b2fc0822ec","amp;dn":"Hum+Hain+Rahi+Pyar+Ke+%281993%29+1CD+DVDRip+XviD+Team+Bindass","amp;tr":["udp%3A%2F%2Ftracker.openbittorrent.com%3A80","udp%3A%2F%2Fopen.demonii.com%3A1337","udp%3A%2F%2Ftracker.coppersurfer.tk%3A6969","udp%3A%2F%2Fexodus.desync.com%3A6969"],"infoHash":"14f0a78cc485eaacc9759f815f90f9b2fc0822ec","infoHashBuffer":{"type":"Buffer","data":[20,240,167,140,196,133,234,172,201,117,159,129,95,144,249,178,252,8,34,236]},"announce":[],"urlList":[]}}